<svg xmlns="http://www.w3.org/2000/svg" viewBox="0 0 512 512" width="100%" height="100%">
  <defs>
    <linearGradient id="brand-grad" x1="0%" y1="0%" x2="100%" y2="100%">
      <stop offset="0%" stop-color="#5C6BC0" />
      <stop offset="100%" stop-color="#303F9F" />
    </linearGradient>
  </defs>
  <!-- Rounded base matching the app's theme and card styling -->
  <rect width="480" height="480" x="16" y="16" rx="108" fill="url(#brand-grad)" />
  <!-- Wallet icon scaled and centered to match the app logo -->
  <g transform="translate(128, 128) scale(10.667)" stroke="#FFFFFF" stroke-width="2" stroke-linecap="round" stroke-linejoin="round" fill="none">
    <path d="M19 7V4a1 1 0 0 0-1-1H5a2 2 0 0 0 0 4h15a1 1 0 0 1 1 1v4h-3a2 2 0 0 0 0 4h3a1 1 0 0 0 1-1v-2a1 1 0 0 0-1-1" />
    <path d="M3 5v14a2 2 0 0 0 2 2h15a1 1 0 0 0 1-1v-4" />
  </g>
</svg>